<mxfile host="app.diagrams.net" agent="Mozilla/5.0 (Windows NT 10.0; Win64; x64; rv:131.0) Gecko/20100101 Firefox/131.0" version="24.8.0">
  <diagram name="Strona-1" id="kVUnlJx-WHvOgBzkblsp">
    <mxGraphModel dx="786" dy="725" grid="1" gridSize="10" guides="1" tooltips="1" connect="1" arrows="1" fold="1" page="1" pageScale="1" pageWidth="827" pageHeight="1169" math="0" shadow="0">
      <root>
        <mxCell id="0" />
        <mxCell id="1" parent="0" />
        <mxCell id="31UsZLCRyv14G394blW1-5" value="Currency" style="swimlane;fontStyle=0;align=center;verticalAlign=top;childLayout=stackLayout;horizontal=1;startSize=30;horizontalStack=0;resizeParent=1;resizeParentMax=0;resizeLast=0;collapsible=0;marginBottom=0;html=1;whiteSpace=wrap;" parent="1" vertex="1">
          <mxGeometry x="1830" y="720" width="170" height="225" as="geometry" />
        </mxCell>
        <mxCell id="31UsZLCRyv14G394blW1-6" value="&lt;div&gt;- name: string&lt;/div&gt;&lt;div&gt;- rate: float&lt;br&gt;&lt;/div&gt;- code: string" style="text;html=1;strokeColor=none;fillColor=none;align=left;verticalAlign=middle;spacingLeft=4;spacingRight=4;overflow=hidden;rotatable=0;points=[[0,0.5],[1,0.5]];portConstraint=eastwest;whiteSpace=wrap;" parent="31UsZLCRyv14G394blW1-5" vertex="1">
          <mxGeometry y="30" width="170" height="65" as="geometry" />
        </mxCell>
        <mxCell id="31UsZLCRyv14G394blW1-7" value="" style="line;strokeWidth=1;fillColor=none;align=left;verticalAlign=middle;spacingTop=-1;spacingLeft=3;spacingRight=3;rotatable=0;labelPosition=right;points=[];portConstraint=eastwest;" parent="31UsZLCRyv14G394blW1-5" vertex="1">
          <mxGeometry y="95" width="170" height="8" as="geometry" />
        </mxCell>
        <mxCell id="31UsZLCRyv14G394blW1-8" value="&lt;div&gt;+ setName(string): void&lt;/div&gt;&lt;div&gt;+ getName(): string&lt;/div&gt;&lt;div&gt;+ setRate(float): void&lt;/div&gt;&lt;div&gt;+ getRate(): float&lt;br&gt;&lt;/div&gt;&lt;div&gt;+ setCode(string): void&lt;/div&gt;&lt;div&gt;+ isEqual(Object): bool&lt;br&gt;&lt;/div&gt;&lt;div&gt;&lt;br&gt;&lt;/div&gt;" style="text;html=1;strokeColor=none;fillColor=none;align=left;verticalAlign=middle;spacingLeft=4;spacingRight=4;overflow=hidden;rotatable=0;points=[[0,0.5],[1,0.5]];portConstraint=eastwest;whiteSpace=wrap;" parent="31UsZLCRyv14G394blW1-5" vertex="1">
          <mxGeometry y="103" width="170" height="122" as="geometry" />
        </mxCell>
        <mxCell id="31UsZLCRyv14G394blW1-9" value="DataProvider" style="swimlane;fontStyle=0;align=center;verticalAlign=top;childLayout=stackLayout;horizontal=1;startSize=30;horizontalStack=0;resizeParent=1;resizeParentMax=0;resizeLast=0;collapsible=0;marginBottom=0;html=1;whiteSpace=wrap;" parent="1" vertex="1">
          <mxGeometry x="1065" y="520" width="180" height="110" as="geometry" />
        </mxCell>
        <mxCell id="31UsZLCRyv14G394blW1-10" value="- url = string" style="text;html=1;strokeColor=none;fillColor=none;align=left;verticalAlign=middle;spacingLeft=4;spacingRight=4;overflow=hidden;rotatable=0;points=[[0,0.5],[1,0.5]];portConstraint=eastwest;whiteSpace=wrap;" parent="31UsZLCRyv14G394blW1-9" vertex="1">
          <mxGeometry y="30" width="180" height="20" as="geometry" />
        </mxCell>
        <mxCell id="31UsZLCRyv14G394blW1-11" value="" style="line;strokeWidth=1;fillColor=none;align=left;verticalAlign=middle;spacingTop=-1;spacingLeft=3;spacingRight=3;rotatable=0;labelPosition=right;points=[];portConstraint=eastwest;" parent="31UsZLCRyv14G394blW1-9" vertex="1">
          <mxGeometry y="50" width="180" height="20" as="geometry" />
        </mxCell>
        <mxCell id="31UsZLCRyv14G394blW1-12" value="&lt;div&gt;- getInstance(): IDataProvider&lt;/div&gt;&lt;div&gt;+ getData(string): string&lt;br&gt;&lt;/div&gt;" style="text;html=1;strokeColor=none;fillColor=none;align=left;verticalAlign=middle;spacingLeft=4;spacingRight=4;overflow=hidden;rotatable=0;points=[[0,0.5],[1,0.5]];portConstraint=eastwest;whiteSpace=wrap;" parent="31UsZLCRyv14G394blW1-9" vertex="1">
          <mxGeometry y="70" width="180" height="40" as="geometry" />
        </mxCell>
        <mxCell id="31UsZLCRyv14G394blW1-13" value="Main" style="swimlane;fontStyle=0;align=center;verticalAlign=top;childLayout=stackLayout;horizontal=1;startSize=30;horizontalStack=0;resizeParent=1;resizeParentMax=0;resizeLast=0;collapsible=0;marginBottom=0;html=1;whiteSpace=wrap;" parent="1" vertex="1">
          <mxGeometry x="1360" y="342" width="140" height="100" as="geometry" />
        </mxCell>
        <mxCell id="31UsZLCRyv14G394blW1-14" value="+ main: Main = None" style="text;html=1;strokeColor=none;fillColor=none;align=left;verticalAlign=middle;spacingLeft=4;spacingRight=4;overflow=hidden;rotatable=0;points=[[0,0.5],[1,0.5]];portConstraint=eastwest;whiteSpace=wrap;" parent="31UsZLCRyv14G394blW1-13" vertex="1">
          <mxGeometry y="30" width="140" height="20" as="geometry" />
        </mxCell>
        <mxCell id="31UsZLCRyv14G394blW1-15" value="" style="line;strokeWidth=1;fillColor=none;align=left;verticalAlign=middle;spacingTop=-1;spacingLeft=3;spacingRight=3;rotatable=0;labelPosition=right;points=[];portConstraint=eastwest;" parent="31UsZLCRyv14G394blW1-13" vertex="1">
          <mxGeometry y="50" width="140" height="8" as="geometry" />
        </mxCell>
        <mxCell id="31UsZLCRyv14G394blW1-16" value="&lt;div&gt;- Main(): Main&lt;/div&gt;&lt;div&gt;+ getInstance(): Main&lt;br&gt;&lt;/div&gt;" style="text;html=1;strokeColor=none;fillColor=none;align=left;verticalAlign=middle;spacingLeft=4;spacingRight=4;overflow=hidden;rotatable=0;points=[[0,0.5],[1,0.5]];portConstraint=eastwest;whiteSpace=wrap;" parent="31UsZLCRyv14G394blW1-13" vertex="1">
          <mxGeometry y="58" width="140" height="42" as="geometry" />
        </mxCell>
        <mxCell id="31UsZLCRyv14G394blW1-17" value="CurrencyCollection" style="swimlane;fontStyle=0;align=center;verticalAlign=top;childLayout=stackLayout;horizontal=1;startSize=30;horizontalStack=0;resizeParent=1;resizeParentMax=0;resizeLast=0;collapsible=0;marginBottom=0;html=1;whiteSpace=wrap;" parent="1" vertex="1">
          <mxGeometry x="1410" y="730" width="219" height="130" as="geometry" />
        </mxCell>
        <mxCell id="31UsZLCRyv14G394blW1-18" value="- currencies: Array&amp;lt;Currency&amp;gt;" style="text;html=1;strokeColor=none;fillColor=none;align=left;verticalAlign=middle;spacingLeft=4;spacingRight=4;overflow=hidden;rotatable=0;points=[[0,0.5],[1,0.5]];portConstraint=eastwest;whiteSpace=wrap;" parent="31UsZLCRyv14G394blW1-17" vertex="1">
          <mxGeometry y="30" width="219" height="20" as="geometry" />
        </mxCell>
        <mxCell id="31UsZLCRyv14G394blW1-19" value="" style="line;strokeWidth=1;fillColor=none;align=left;verticalAlign=middle;spacingTop=-1;spacingLeft=3;spacingRight=3;rotatable=0;labelPosition=right;points=[];portConstraint=eastwest;" parent="31UsZLCRyv14G394blW1-17" vertex="1">
          <mxGeometry y="50" width="219" height="8" as="geometry" />
        </mxCell>
        <mxCell id="31UsZLCRyv14G394blW1-20" value="&lt;div&gt;+ addCurrency(Currency): void&lt;br&gt;&lt;/div&gt;&lt;div&gt;+ getCurrency(Currency): Currency&lt;br&gt;&lt;/div&gt;&lt;div&gt;+ editCurrency(Currency): void&lt;br&gt;&lt;/div&gt;&lt;div&gt;+ removeCurrency(Currency): void&lt;br&gt;&lt;/div&gt;" style="text;html=1;strokeColor=none;fillColor=none;align=left;verticalAlign=middle;spacingLeft=4;spacingRight=4;overflow=hidden;rotatable=0;points=[[0,0.5],[1,0.5]];portConstraint=eastwest;whiteSpace=wrap;" parent="31UsZLCRyv14G394blW1-17" vertex="1">
          <mxGeometry y="58" width="219" height="72" as="geometry" />
        </mxCell>
        <mxCell id="31UsZLCRyv14G394blW1-21" value="DataParser" style="swimlane;fontStyle=0;align=center;verticalAlign=top;childLayout=stackLayout;horizontal=1;startSize=30;horizontalStack=0;resizeParent=1;resizeParentMax=0;resizeLast=0;collapsible=0;marginBottom=0;html=1;whiteSpace=wrap;" parent="1" vertex="1">
          <mxGeometry x="1040" y="700" width="220" height="90" as="geometry" />
        </mxCell>
        <mxCell id="31UsZLCRyv14G394blW1-22" value="- toParse(): string" style="text;html=1;strokeColor=none;fillColor=none;align=left;verticalAlign=middle;spacingLeft=4;spacingRight=4;overflow=hidden;rotatable=0;points=[[0,0.5],[1,0.5]];portConstraint=eastwest;whiteSpace=wrap;" parent="31UsZLCRyv14G394blW1-21" vertex="1">
          <mxGeometry y="30" width="220" height="20" as="geometry" />
        </mxCell>
        <mxCell id="31UsZLCRyv14G394blW1-23" value="" style="line;strokeWidth=1;fillColor=none;align=left;verticalAlign=middle;spacingTop=-1;spacingLeft=3;spacingRight=3;rotatable=0;labelPosition=right;points=[];portConstraint=eastwest;" parent="31UsZLCRyv14G394blW1-21" vertex="1">
          <mxGeometry y="50" width="220" height="8" as="geometry" />
        </mxCell>
        <mxCell id="31UsZLCRyv14G394blW1-24" value="+ parseData(CurrencyCollection): void" style="text;html=1;strokeColor=none;fillColor=none;align=left;verticalAlign=middle;spacingLeft=4;spacingRight=4;overflow=hidden;rotatable=0;points=[[0,0.5],[1,0.5]];portConstraint=eastwest;whiteSpace=wrap;" parent="31UsZLCRyv14G394blW1-21" vertex="1">
          <mxGeometry y="58" width="220" height="32" as="geometry" />
        </mxCell>
        <mxCell id="31UsZLCRyv14G394blW1-25" value="Exchanger" style="swimlane;fontStyle=0;align=center;verticalAlign=top;childLayout=stackLayout;horizontal=1;startSize=30;horizontalStack=0;resizeParent=1;resizeParentMax=0;resizeLast=0;collapsible=0;marginBottom=0;html=1;whiteSpace=wrap;" parent="1" vertex="1">
          <mxGeometry x="1570" y="520" width="400" height="110" as="geometry" />
        </mxCell>
        <mxCell id="31UsZLCRyv14G394blW1-26" value="- currencyCollection: CurrecyCollection" style="text;html=1;strokeColor=none;fillColor=none;align=left;verticalAlign=middle;spacingLeft=4;spacingRight=4;overflow=hidden;rotatable=0;points=[[0,0.5],[1,0.5]];portConstraint=eastwest;whiteSpace=wrap;" parent="31UsZLCRyv14G394blW1-25" vertex="1">
          <mxGeometry y="30" width="400" height="20" as="geometry" />
        </mxCell>
        <mxCell id="31UsZLCRyv14G394blW1-27" value="" style="line;strokeWidth=1;fillColor=none;align=left;verticalAlign=middle;spacingTop=-1;spacingLeft=3;spacingRight=3;rotatable=0;labelPosition=right;points=[];portConstraint=eastwest;" parent="31UsZLCRyv14G394blW1-25" vertex="1">
          <mxGeometry y="50" width="400" height="20" as="geometry" />
        </mxCell>
        <mxCell id="31UsZLCRyv14G394blW1-28" value="&lt;div&gt;+ getInstance(CurrencyCollection): Exchange&lt;/div&gt;&lt;div&gt;+ exchange(Currency, Currency, amount, CurrencyCollection): float&lt;br&gt;&lt;/div&gt;" style="text;html=1;strokeColor=none;fillColor=none;align=left;verticalAlign=middle;spacingLeft=4;spacingRight=4;overflow=hidden;rotatable=0;points=[[0,0.5],[1,0.5]];portConstraint=eastwest;whiteSpace=wrap;" parent="31UsZLCRyv14G394blW1-25" vertex="1">
          <mxGeometry y="70" width="400" height="40" as="geometry" />
        </mxCell>
        <mxCell id="31UsZLCRyv14G394blW1-29" value="use" style="html=1;verticalAlign=bottom;endArrow=open;dashed=1;endSize=8;curved=0;rounded=0;exitX=0.52;exitY=-0.018;exitDx=0;exitDy=0;entryX=0.497;entryY=0.983;entryDx=0;entryDy=0;entryPerimeter=0;exitPerimeter=0;" parent="1" source="31UsZLCRyv14G394blW1-21" target="31UsZLCRyv14G394blW1-12" edge="1">
          <mxGeometry relative="1" as="geometry">
            <mxPoint x="1120" y="630" as="sourcePoint" />
            <mxPoint x="1040" y="450" as="targetPoint" />
          </mxGeometry>
        </mxCell>
        <mxCell id="31UsZLCRyv14G394blW1-30" value="&lt;div&gt;create&lt;/div&gt;&lt;div&gt;&lt;br&gt;&lt;/div&gt;" style="html=1;verticalAlign=bottom;endArrow=open;dashed=1;endSize=8;curved=0;rounded=0;entryX=0;entryY=0.05;entryDx=0;entryDy=0;exitX=1.005;exitY=0.125;exitDx=0;exitDy=0;entryPerimeter=0;exitPerimeter=0;" parent="1" source="31UsZLCRyv14G394blW1-24" target="31UsZLCRyv14G394blW1-18" edge="1">
          <mxGeometry x="0.0599" y="1" relative="1" as="geometry">
            <mxPoint x="1120" y="630" as="sourcePoint" />
            <mxPoint x="1280" y="880" as="targetPoint" />
            <mxPoint as="offset" />
          </mxGeometry>
        </mxCell>
        <mxCell id="31UsZLCRyv14G394blW1-32" value="" style="endArrow=none;html=1;endSize=12;startArrow=diamondThin;startSize=14;startFill=1;edgeStyle=orthogonalEdgeStyle;align=left;verticalAlign=bottom;rounded=0;endFill=0;entryX=0.001;entryY=0.587;entryDx=0;entryDy=0;entryPerimeter=0;" parent="1" target="31UsZLCRyv14G394blW1-6" edge="1">
          <mxGeometry x="-0.149" y="15" relative="1" as="geometry">
            <mxPoint x="1630" y="760" as="sourcePoint" />
            <mxPoint x="1650" y="980" as="targetPoint" />
            <mxPoint as="offset" />
          </mxGeometry>
        </mxCell>
        <mxCell id="31UsZLCRyv14G394blW1-34" value="use" style="html=1;verticalAlign=bottom;endArrow=open;dashed=1;endSize=8;curved=0;rounded=0;exitX=0.891;exitY=1;exitDx=0;exitDy=0;entryX=0.568;entryY=0.007;entryDx=0;entryDy=0;exitPerimeter=0;entryPerimeter=0;" parent="1" source="31UsZLCRyv14G394blW1-28" target="31UsZLCRyv14G394blW1-5" edge="1">
          <mxGeometry relative="1" as="geometry">
            <mxPoint x="1130" y="840" as="sourcePoint" />
            <mxPoint x="1480" y="840" as="targetPoint" />
          </mxGeometry>
        </mxCell>
        <mxCell id="31UsZLCRyv14G394blW1-35" value="&amp;lt;&amp;lt;Interface&amp;gt;&amp;gt;&lt;br&gt;&lt;div&gt;IDataProvider&lt;/div&gt;" style="swimlane;fontStyle=0;align=center;verticalAlign=top;childLayout=stackLayout;horizontal=1;startSize=42;horizontalStack=0;resizeParent=1;resizeParentMax=0;resizeLast=0;collapsible=0;marginBottom=0;html=1;whiteSpace=wrap;" parent="1" vertex="1">
          <mxGeometry x="1060" y="342" width="190" height="102" as="geometry" />
        </mxCell>
        <mxCell id="31UsZLCRyv14G394blW1-36" value="" style="line;strokeWidth=1;fillColor=none;align=left;verticalAlign=middle;spacingTop=-1;spacingLeft=3;spacingRight=3;rotatable=0;labelPosition=right;points=[];portConstraint=eastwest;" parent="31UsZLCRyv14G394blW1-35" vertex="1">
          <mxGeometry y="42" width="190" height="20" as="geometry" />
        </mxCell>
        <mxCell id="31UsZLCRyv14G394blW1-51" value="&lt;div&gt;- getInstance(): IDataProvider&lt;/div&gt;&lt;div&gt;+ getData(string): string&lt;br&gt;&lt;/div&gt;" style="text;html=1;strokeColor=none;fillColor=none;align=left;verticalAlign=middle;spacingLeft=4;spacingRight=4;overflow=hidden;rotatable=0;points=[[0,0.5],[1,0.5]];portConstraint=eastwest;whiteSpace=wrap;" parent="31UsZLCRyv14G394blW1-35" vertex="1">
          <mxGeometry y="62" width="190" height="40" as="geometry" />
        </mxCell>
        <mxCell id="31UsZLCRyv14G394blW1-37" value="UserInterface" style="swimlane;fontStyle=0;align=center;verticalAlign=top;childLayout=stackLayout;horizontal=1;startSize=30;horizontalStack=0;resizeParent=1;resizeParentMax=0;resizeLast=0;collapsible=0;marginBottom=0;html=1;whiteSpace=wrap;" parent="1" vertex="1">
          <mxGeometry x="1610" y="370" width="180" height="70" as="geometry" />
        </mxCell>
        <mxCell id="31UsZLCRyv14G394blW1-38" value="" style="line;strokeWidth=1;fillColor=none;align=left;verticalAlign=middle;spacingTop=-1;spacingLeft=3;spacingRight=3;rotatable=0;labelPosition=right;points=[];portConstraint=eastwest;" parent="31UsZLCRyv14G394blW1-37" vertex="1">
          <mxGeometry y="30" width="180" height="20" as="geometry" />
        </mxCell>
        <mxCell id="31UsZLCRyv14G394blW1-49" value="&lt;div&gt;- mainLoop(): void&lt;/div&gt;" style="text;html=1;strokeColor=none;fillColor=none;align=left;verticalAlign=middle;spacingLeft=4;spacingRight=4;overflow=hidden;rotatable=0;points=[[0,0.5],[1,0.5]];portConstraint=eastwest;whiteSpace=wrap;" parent="31UsZLCRyv14G394blW1-37" vertex="1">
          <mxGeometry y="50" width="180" height="20" as="geometry" />
        </mxCell>
        <mxCell id="31UsZLCRyv14G394blW1-39" value="" style="rounded=0;orthogonalLoop=1;jettySize=auto;html=1;endArrow=halfCircle;endFill=0;endSize=6;strokeWidth=1;sketch=0;exitX=0.515;exitY=1.077;exitDx=0;exitDy=0;exitPerimeter=0;" parent="1" source="31UsZLCRyv14G394blW1-51" edge="1">
          <mxGeometry relative="1" as="geometry">
            <mxPoint x="890" y="390" as="sourcePoint" />
            <mxPoint x="1155" y="480" as="targetPoint" />
          </mxGeometry>
        </mxCell>
        <mxCell id="31UsZLCRyv14G394blW1-40" value="" style="rounded=0;orthogonalLoop=1;jettySize=auto;html=1;endArrow=oval;endFill=0;sketch=0;sourcePerimeterSpacing=0;targetPerimeterSpacing=0;endSize=10;exitX=0.5;exitY=0;exitDx=0;exitDy=0;" parent="1" source="31UsZLCRyv14G394blW1-9" edge="1">
          <mxGeometry relative="1" as="geometry">
            <mxPoint x="980" y="433" as="sourcePoint" />
            <mxPoint x="1155" y="480" as="targetPoint" />
            <Array as="points" />
          </mxGeometry>
        </mxCell>
        <mxCell id="31UsZLCRyv14G394blW1-41" value="" style="ellipse;whiteSpace=wrap;html=1;align=center;aspect=fixed;fillColor=none;strokeColor=none;resizable=0;perimeter=centerPerimeter;rotatable=0;allowArrows=0;points=[];outlineConnect=1;" parent="1" vertex="1">
          <mxGeometry x="900" y="360" width="10" height="10" as="geometry" />
        </mxCell>
        <mxCell id="31UsZLCRyv14G394blW1-42" value="&amp;lt;&amp;lt;Interface&amp;gt;&amp;gt;&lt;br&gt;&lt;div&gt;UserInterface&lt;/div&gt;" style="swimlane;fontStyle=0;align=center;verticalAlign=top;childLayout=stackLayout;horizontal=1;startSize=40;horizontalStack=0;resizeParent=1;resizeParentMax=0;resizeLast=0;collapsible=0;marginBottom=0;html=1;whiteSpace=wrap;" parent="1" vertex="1">
          <mxGeometry x="1610" y="210" width="180" height="80" as="geometry" />
        </mxCell>
        <mxCell id="31UsZLCRyv14G394blW1-43" value="" style="line;strokeWidth=1;fillColor=none;align=left;verticalAlign=middle;spacingTop=-1;spacingLeft=3;spacingRight=3;rotatable=0;labelPosition=right;points=[];portConstraint=eastwest;" parent="31UsZLCRyv14G394blW1-42" vertex="1">
          <mxGeometry y="40" width="180" height="20" as="geometry" />
        </mxCell>
        <mxCell id="31UsZLCRyv14G394blW1-52" value="-mainLoop(): void" style="text;html=1;strokeColor=none;fillColor=none;align=left;verticalAlign=middle;spacingLeft=4;spacingRight=4;overflow=hidden;rotatable=0;points=[[0,0.5],[1,0.5]];portConstraint=eastwest;whiteSpace=wrap;" parent="31UsZLCRyv14G394blW1-42" vertex="1">
          <mxGeometry y="60" width="180" height="20" as="geometry" />
        </mxCell>
        <mxCell id="31UsZLCRyv14G394blW1-44" value="" style="rounded=0;orthogonalLoop=1;jettySize=auto;html=1;endArrow=halfCircle;endFill=0;endSize=6;strokeWidth=1;sketch=0;exitX=0.5;exitY=1;exitDx=0;exitDy=0;" parent="1" source="31UsZLCRyv14G394blW1-42" edge="1">
          <mxGeometry relative="1" as="geometry">
            <mxPoint x="1729.9999999999998" y="449.99999999999994" as="sourcePoint" />
            <mxPoint x="1700" y="320" as="targetPoint" />
          </mxGeometry>
        </mxCell>
        <mxCell id="31UsZLCRyv14G394blW1-45" value="" style="rounded=0;orthogonalLoop=1;jettySize=auto;html=1;endArrow=oval;endFill=0;sketch=0;sourcePerimeterSpacing=0;targetPerimeterSpacing=0;endSize=10;exitX=0.5;exitY=0;exitDx=0;exitDy=0;" parent="1" source="31UsZLCRyv14G394blW1-37" edge="1">
          <mxGeometry relative="1" as="geometry">
            <mxPoint x="1460" y="415" as="sourcePoint" />
            <mxPoint x="1700" y="320" as="targetPoint" />
          </mxGeometry>
        </mxCell>
        <mxCell id="31UsZLCRyv14G394blW1-46" value="" style="ellipse;whiteSpace=wrap;html=1;align=center;aspect=fixed;fillColor=none;strokeColor=none;resizable=0;perimeter=centerPerimeter;rotatable=0;allowArrows=0;points=[];outlineConnect=1;" parent="1" vertex="1">
          <mxGeometry x="1760" y="410" width="10" height="10" as="geometry" />
        </mxCell>
        <mxCell id="31UsZLCRyv14G394blW1-47" value="create" style="html=1;verticalAlign=bottom;endArrow=open;dashed=1;endSize=8;curved=0;rounded=0;exitX=1;exitY=0.5;exitDx=0;exitDy=0;entryX=0;entryY=0.5;entryDx=0;entryDy=0;" parent="1" source="31UsZLCRyv14G394blW1-14" target="31UsZLCRyv14G394blW1-42" edge="1">
          <mxGeometry relative="1" as="geometry">
            <mxPoint x="1180" y="852" as="sourcePoint" />
            <mxPoint x="1660" y="370" as="targetPoint" />
          </mxGeometry>
        </mxCell>
        <mxCell id="31UsZLCRyv14G394blW1-48" value="create" style="html=1;verticalAlign=bottom;endArrow=open;dashed=1;endSize=8;curved=0;rounded=0;entryX=0.327;entryY=0.003;entryDx=0;entryDy=0;exitX=0.5;exitY=1;exitDx=0;exitDy=0;entryPerimeter=0;" parent="1" source="31UsZLCRyv14G394blW1-37" target="31UsZLCRyv14G394blW1-25" edge="1">
          <mxGeometry relative="1" as="geometry">
            <mxPoint x="1561" y="667" as="sourcePoint" />
            <mxPoint x="1505" y="618" as="targetPoint" />
          </mxGeometry>
        </mxCell>
        <mxCell id="31UsZLCRyv14G394blW1-50" value="create" style="html=1;verticalAlign=bottom;endArrow=open;dashed=1;endSize=8;curved=0;rounded=0;entryX=1;entryY=0;entryDx=0;entryDy=0;exitX=-0.005;exitY=0.96;exitDx=0;exitDy=0;exitPerimeter=0;" parent="1" source="31UsZLCRyv14G394blW1-16" target="31UsZLCRyv14G394blW1-21" edge="1">
          <mxGeometry relative="1" as="geometry">
            <mxPoint x="1480" y="390" as="sourcePoint" />
            <mxPoint x="1570" y="513" as="targetPoint" />
          </mxGeometry>
        </mxCell>
        <mxCell id="31UsZLCRyv14G394blW1-54" value="create" style="html=1;verticalAlign=bottom;endArrow=open;dashed=1;endSize=8;curved=0;rounded=0;entryX=1;entryY=0.5;entryDx=0;entryDy=0;exitX=0.002;exitY=0.125;exitDx=0;exitDy=0;exitPerimeter=0;" parent="1" source="31UsZLCRyv14G394blW1-15" target="31UsZLCRyv14G394blW1-35" edge="1">
          <mxGeometry relative="1" as="geometry">
            <mxPoint x="1341" y="397" as="sourcePoint" />
            <mxPoint x="1200" y="481" as="targetPoint" />
          </mxGeometry>
        </mxCell>
        <mxCell id="31UsZLCRyv14G394blW1-55" value="create" style="html=1;verticalAlign=bottom;endArrow=open;dashed=1;endSize=8;curved=0;rounded=0;entryX=0.42;entryY=-0.023;entryDx=0;entryDy=0;exitX=1.011;exitY=1.01;exitDx=0;exitDy=0;exitPerimeter=0;entryPerimeter=0;" parent="1" source="31UsZLCRyv14G394blW1-16" target="31UsZLCRyv14G394blW1-17" edge="1">
          <mxGeometry relative="1" as="geometry">
            <mxPoint x="1390" y="440" as="sourcePoint" />
            <mxPoint x="1210" y="491" as="targetPoint" />
          </mxGeometry>
        </mxCell>
        <mxCell id="31UsZLCRyv14G394blW1-60" value="n" style="text;whiteSpace=wrap;html=1;" parent="1" vertex="1">
          <mxGeometry x="1650" y="980" width="40" height="40" as="geometry" />
        </mxCell>
        <mxCell id="xuZa5Zepq1M0sjtqaiKa-1" value="use" style="html=1;verticalAlign=bottom;endArrow=open;dashed=1;endSize=8;curved=0;rounded=0;exitX=0.109;exitY=1.063;exitDx=0;exitDy=0;exitPerimeter=0;entryX=0.934;entryY=-0.014;entryDx=0;entryDy=0;entryPerimeter=0;" edge="1" parent="1" source="31UsZLCRyv14G394blW1-28" target="31UsZLCRyv14G394blW1-17">
          <mxGeometry relative="1" as="geometry">
            <mxPoint x="1769" y="772" as="sourcePoint" />
            <mxPoint x="1629" y="730" as="targetPoint" />
          </mxGeometry>
        </mxCell>
      </root>
    </mxGraphModel>
  </diagram>
</mxfile>
